<mxfile host="65bd71144e">
    <diagram id="Cf1AXsGbQuAOcQ2hujY1" name="Page-1">
        <mxGraphModel dx="1039" dy="469" grid="0" gridSize="10" guides="1" tooltips="1" connect="1" arrows="1" fold="1" page="1" pageScale="1" pageWidth="850" pageHeight="1100" background="#000000" math="0" shadow="0">
            <root>
                <mxCell id="0"/>
                <mxCell id="1" parent="0"/>
                <mxCell id="2" value="Vehiculo" style="swimlane;fontStyle=1;align=center;verticalAlign=top;childLayout=stackLayout;horizontal=1;startSize=26;horizontalStack=0;resizeParent=1;resizeParentMax=0;resizeLast=0;collapsible=1;marginBottom=0;fillColor=#a20025;fontColor=#ffffff;strokeColor=#6F0000;" parent="1" vertex="1">
                    <mxGeometry x="90" y="310" width="220" height="281" as="geometry"/>
                </mxCell>
                <mxCell id="3" value="- id_vehiculo: int&#10;- marca: str&#10;- modelo: str&#10;- aÃ±o: int&#10;- placa: str&#10;- color: str&#10;- combustible: str&#10;- transmision: str&#10;- cilindraje: float&#10;- kilometraje: float&#10;- puertas: int&#10;- alarma: bool&#10;- sensor: bool&#10;- precio: float&#10;" style="text;strokeColor=none;fillColor=none;align=left;verticalAlign=top;spacingLeft=4;spacingRight=4;overflow=hidden;rotatable=0;points=[[0,0.5],[1,0.5]];portConstraint=eastwest;fontColor=#F0F0F0;" parent="2" vertex="1">
                    <mxGeometry y="26" width="220" height="204" as="geometry"/>
                </mxCell>
                <mxCell id="4" value="" style="line;strokeWidth=1;fillColor=none;align=left;verticalAlign=middle;spacingTop=-1;spacingLeft=3;spacingRight=3;rotatable=0;labelPosition=right;points=[];portConstraint=eastwest;strokeColor=inherit;" parent="2" vertex="1">
                    <mxGeometry y="230" width="220" height="8" as="geometry"/>
                </mxCell>
                <mxCell id="5" value="+ mostrar_detalles_vehiculo(): none&#10;+ borrar_vehiculo(): none" style="text;strokeColor=none;fillColor=none;align=left;verticalAlign=top;spacingLeft=4;spacingRight=4;overflow=hidden;rotatable=0;points=[[0,0.5],[1,0.5]];portConstraint=eastwest;fontColor=#F0F0F0;" parent="2" vertex="1">
                    <mxGeometry y="238" width="220" height="43" as="geometry"/>
                </mxCell>
                <mxCell id="6" value="Cliente" style="swimlane;fontStyle=1;align=center;verticalAlign=top;childLayout=stackLayout;horizontal=1;startSize=26;horizontalStack=0;resizeParent=1;resizeParentMax=0;resizeLast=0;collapsible=1;marginBottom=0;fillColor=#a20025;strokeColor=#6F0000;fontColor=#ffffff;" parent="1" vertex="1">
                    <mxGeometry x="90" y="10" width="220" height="242" as="geometry"/>
                </mxCell>
                <mxCell id="7" value="- id_cliente: int&#10;- nombre: str&#10;- apellidos: str&#10;- documento: int&#10;- edad: int&#10;- genero: str&#10;- direccion: str&#10;- email: str&#10;- celular: int&#10;- vehiculos_comprados: list" style="text;strokeColor=none;fillColor=none;align=left;verticalAlign=top;spacingLeft=4;spacingRight=4;overflow=hidden;rotatable=0;points=[[0,0.5],[1,0.5]];portConstraint=eastwest;fontColor=#F0F0F0;labelBorderColor=none;" parent="6" vertex="1">
                    <mxGeometry y="26" width="220" height="154" as="geometry"/>
                </mxCell>
                <mxCell id="71" value="1" style="endArrow=open;html=1;endSize=12;startArrow=diamondThin;startSize=14;startFill=0;edgeStyle=orthogonalEdgeStyle;align=left;verticalAlign=bottom;entryX=-0.005;entryY=0.357;entryDx=0;entryDy=0;entryPerimeter=0;" parent="6" target="3" edge="1">
                    <mxGeometry x="-0.8682" y="18" relative="1" as="geometry">
                        <mxPoint y="102.5" as="sourcePoint"/>
                        <mxPoint x="-10" y="400" as="targetPoint"/>
                        <Array as="points">
                            <mxPoint x="-50" y="103"/>
                            <mxPoint x="-50" y="399"/>
                        </Array>
                        <mxPoint as="offset"/>
                    </mxGeometry>
                </mxCell>
                <mxCell id="8" value="" style="line;strokeWidth=1;fillColor=none;align=left;verticalAlign=middle;spacingTop=-1;spacingLeft=3;spacingRight=3;rotatable=0;labelPosition=right;points=[];portConstraint=eastwest;strokeColor=inherit;" parent="6" vertex="1">
                    <mxGeometry y="180" width="220" height="8" as="geometry"/>
                </mxCell>
                <mxCell id="9" value="+ ingresar_cliente(): none&#10;+ mostrar_detalles_cliente(): none&#10;+ borrar_cliente(): none&#10;&#10;" style="text;strokeColor=none;fillColor=none;align=left;verticalAlign=top;spacingLeft=4;spacingRight=4;overflow=hidden;rotatable=0;points=[[0,0.5],[1,0.5]];portConstraint=eastwest;fontColor=#F0F0F0;" parent="6" vertex="1">
                    <mxGeometry y="188" width="220" height="54" as="geometry"/>
                </mxCell>
                <mxCell id="15" value="Tarjeta" style="swimlane;fontStyle=1;align=center;verticalAlign=top;childLayout=stackLayout;horizontal=1;startSize=26;horizontalStack=0;resizeParent=1;resizeParentMax=0;resizeLast=0;collapsible=1;marginBottom=0;fillColor=#a20025;fontColor=#ffffff;strokeColor=#6F0000;" parent="1" vertex="1">
                    <mxGeometry x="350" y="630" width="180" height="140" as="geometry"/>
                </mxCell>
                <mxCell id="16" value="- cliente: Cliente&#10;- numero_cuenta: int&#10;- tipo: str&#10;- fecha_expiracion: str" style="text;strokeColor=none;fillColor=none;align=left;verticalAlign=top;spacingLeft=4;spacingRight=4;overflow=hidden;rotatable=0;points=[[0,0.5],[1,0.5]];portConstraint=eastwest;fontColor=#F0F0F0;" parent="15" vertex="1">
                    <mxGeometry y="26" width="180" height="74" as="geometry"/>
                </mxCell>
                <mxCell id="17" value="" style="line;strokeWidth=1;fillColor=none;align=left;verticalAlign=middle;spacingTop=-1;spacingLeft=3;spacingRight=3;rotatable=0;labelPosition=right;points=[];portConstraint=eastwest;strokeColor=inherit;" parent="15" vertex="1">
                    <mxGeometry y="100" width="180" height="8" as="geometry"/>
                </mxCell>
                <mxCell id="18" value="+ verificar_validez(): bool" style="text;strokeColor=none;fillColor=none;align=left;verticalAlign=top;spacingLeft=4;spacingRight=4;overflow=hidden;rotatable=0;points=[[0,0.5],[1,0.5]];portConstraint=eastwest;fontColor=#F0F0F0;" parent="15" vertex="1">
                    <mxGeometry y="108" width="180" height="32" as="geometry"/>
                </mxCell>
                <mxCell id="19" value="Pago" style="swimlane;fontStyle=1;align=center;verticalAlign=top;childLayout=stackLayout;horizontal=1;startSize=26;horizontalStack=0;resizeParent=1;resizeParentMax=0;resizeLast=0;collapsible=1;marginBottom=0;fillColor=#a20025;fontColor=#ffffff;strokeColor=#6F0000;" parent="1" vertex="1">
                    <mxGeometry x="450" y="340" width="190" height="90" as="geometry">
                        <mxRectangle x="450" y="340" width="70" height="30" as="alternateBounds"/>
                    </mxGeometry>
                </mxCell>
                <mxCell id="20" value="- cantidad: float" style="text;strokeColor=none;fillColor=none;align=left;verticalAlign=top;spacingLeft=4;spacingRight=4;overflow=hidden;rotatable=0;points=[[0,0.5],[1,0.5]];portConstraint=eastwest;fontColor=#F0F0F0;" parent="19" vertex="1">
                    <mxGeometry y="26" width="190" height="24" as="geometry"/>
                </mxCell>
                <mxCell id="21" value="" style="line;strokeWidth=1;fillColor=none;align=left;verticalAlign=middle;spacingTop=-1;spacingLeft=3;spacingRight=3;rotatable=0;labelPosition=right;points=[];portConstraint=eastwest;strokeColor=inherit;" parent="19" vertex="1">
                    <mxGeometry y="50" width="190" height="8" as="geometry"/>
                </mxCell>
                <mxCell id="22" value="+ verificar_fondos(float): bool" style="text;strokeColor=none;fillColor=none;align=left;verticalAlign=top;spacingLeft=4;spacingRight=4;overflow=hidden;rotatable=0;points=[[0,0.5],[1,0.5]];portConstraint=eastwest;fontColor=#F0F0F0;" parent="19" vertex="1">
                    <mxGeometry y="58" width="190" height="32" as="geometry"/>
                </mxCell>
                <mxCell id="28" value="Extends" style="endArrow=block;endSize=16;endFill=0;html=1;exitX=0.5;exitY=0;exitDx=0;exitDy=0;" parent="1" source="15" target="22" edge="1">
                    <mxGeometry x="-0.5932" width="160" relative="1" as="geometry">
                        <mxPoint x="390" y="470" as="sourcePoint"/>
                        <mxPoint x="440" y="490" as="targetPoint"/>
                        <Array as="points">
                            <mxPoint x="440" y="530"/>
                            <mxPoint x="545" y="530"/>
                        </Array>
                        <mxPoint as="offset"/>
                    </mxGeometry>
                </mxCell>
                <mxCell id="29" value="Extends" style="endArrow=block;endSize=16;endFill=0;html=1;exitX=0.5;exitY=0;exitDx=0;exitDy=0;entryX=0.502;entryY=1;entryDx=0;entryDy=0;entryPerimeter=0;" parent="1" source="51" target="22" edge="1">
                    <mxGeometry x="-0.6" y="5" width="160" relative="1" as="geometry">
                        <mxPoint x="640" y="630" as="sourcePoint"/>
                        <mxPoint x="390" y="510" as="targetPoint"/>
                        <Array as="points">
                            <mxPoint x="655" y="530"/>
                            <mxPoint x="620" y="530"/>
                            <mxPoint x="590" y="530"/>
                            <mxPoint x="560" y="530"/>
                            <mxPoint x="545" y="530"/>
                        </Array>
                        <mxPoint as="offset"/>
                    </mxGeometry>
                </mxCell>
                <mxCell id="37" value="Venta" style="swimlane;fontStyle=1;align=center;verticalAlign=top;childLayout=stackLayout;horizontal=1;startSize=26;horizontalStack=0;resizeParent=1;resizeParentMax=0;resizeLast=0;collapsible=1;marginBottom=0;fillColor=#a20025;fontColor=#ffffff;strokeColor=#6F0000;" parent="1" vertex="1">
                    <mxGeometry x="480" y="101" width="260" height="170" as="geometry"/>
                </mxCell>
                <mxCell id="38" value="- id_venta: int&#10;- fecha: str&#10;- estado: str" style="text;strokeColor=none;fillColor=none;align=left;verticalAlign=top;spacingLeft=4;spacingRight=4;overflow=hidden;rotatable=0;points=[[0,0.5],[1,0.5]];portConstraint=eastwest;fontColor=#F0F0F0;" parent="37" vertex="1">
                    <mxGeometry y="26" width="260" height="54" as="geometry"/>
                </mxCell>
                <mxCell id="39" value="" style="line;strokeWidth=1;fillColor=none;align=left;verticalAlign=middle;spacingTop=-1;spacingLeft=3;spacingRight=3;rotatable=0;labelPosition=right;points=[];portConstraint=eastwest;strokeColor=inherit;" parent="37" vertex="1">
                    <mxGeometry y="80" width="260" height="8" as="geometry"/>
                </mxCell>
                <mxCell id="40" value="+ realizar_compra(Cliente, Vehiculo): none&#10;+ generar_factura(Cliente, Vehiculo): str&#10;+ calcular_total(float): float&#10;+ mostrar_detalles_venta(): none&#10;+ cancelar_venta(): none&#10;" style="text;strokeColor=none;fillColor=none;align=left;verticalAlign=top;spacingLeft=4;spacingRight=4;overflow=hidden;rotatable=0;points=[[0,0.5],[1,0.5]];portConstraint=eastwest;fontColor=#F0F0F0;" parent="37" vertex="1">
                    <mxGeometry y="88" width="260" height="82" as="geometry"/>
                </mxCell>
                <mxCell id="46" value="" style="endArrow=open;html=1;endSize=12;startArrow=diamondThin;startSize=14;startFill=0;edgeStyle=orthogonalEdgeStyle;entryX=0;entryY=0.5;entryDx=0;entryDy=0;exitX=1;exitY=0.5;exitDx=0;exitDy=0;" parent="1" source="7" target="38" edge="1">
                    <mxGeometry relative="1" as="geometry">
                        <mxPoint x="490" y="220" as="sourcePoint"/>
                        <mxPoint x="650" y="220" as="targetPoint"/>
                    </mxGeometry>
                </mxCell>
                <mxCell id="47" value="1" style="edgeLabel;resizable=0;html=1;align=left;verticalAlign=top;" parent="46" connectable="0" vertex="1">
                    <mxGeometry x="-1" relative="1" as="geometry">
                        <mxPoint x="10" as="offset"/>
                    </mxGeometry>
                </mxCell>
                <mxCell id="48" value="0..n" style="edgeLabel;resizable=0;html=1;align=right;verticalAlign=top;" parent="46" connectable="0" vertex="1">
                    <mxGeometry x="1" relative="1" as="geometry">
                        <mxPoint x="-10" as="offset"/>
                    </mxGeometry>
                </mxCell>
                <mxCell id="51" value="Efectivo" style="swimlane;fontStyle=1;align=center;verticalAlign=top;childLayout=stackLayout;horizontal=1;startSize=26;horizontalStack=0;resizeParent=1;resizeParentMax=0;resizeLast=0;collapsible=1;marginBottom=0;fillColor=#a20025;fontColor=#ffffff;strokeColor=#6F0000;" parent="1" vertex="1">
                    <mxGeometry x="550" y="630" width="210" height="90" as="geometry"/>
                </mxCell>
                <mxCell id="52" value="- efectivo_operado: float" style="text;strokeColor=none;fillColor=none;align=left;verticalAlign=top;spacingLeft=4;spacingRight=4;overflow=hidden;rotatable=0;points=[[0,0.5],[1,0.5]];portConstraint=eastwest;fontColor=#F0F0F0;" parent="51" vertex="1">
                    <mxGeometry y="26" width="210" height="26" as="geometry"/>
                </mxCell>
                <mxCell id="53" value="" style="line;strokeWidth=1;fillColor=none;align=left;verticalAlign=middle;spacingTop=-1;spacingLeft=3;spacingRight=3;rotatable=0;labelPosition=right;points=[];portConstraint=eastwest;strokeColor=inherit;" parent="51" vertex="1">
                    <mxGeometry y="52" width="210" height="8" as="geometry"/>
                </mxCell>
                <mxCell id="54" value="+ devolver_cambio(float): float" style="text;strokeColor=none;fillColor=none;align=left;verticalAlign=top;spacingLeft=4;spacingRight=4;overflow=hidden;rotatable=0;points=[[0,0.5],[1,0.5]];portConstraint=eastwest;fontColor=#F0F0F0;" parent="51" vertex="1">
                    <mxGeometry y="60" width="210" height="30" as="geometry"/>
                </mxCell>
                <mxCell id="61" value="&lt;b&gt;Estado&lt;br&gt;&lt;/b&gt;&lt;hr&gt;- Pagado&lt;br&gt;- No Pagado" style="html=1;fillColor=#a20025;fontColor=#ffffff;strokeColor=#000000;strokeWidth=2;glass=0;rounded=1;shadow=0;arcSize=15;" parent="1" vertex="1">
                    <mxGeometry x="575" y="10" width="110" height="70" as="geometry"/>
                </mxCell>
                <mxCell id="62" value="1" style="text;html=1;align=center;verticalAlign=middle;resizable=0;points=[];autosize=1;strokeColor=none;fillColor=none;" parent="1" vertex="1">
                    <mxGeometry x="573" y="276" width="30" height="30" as="geometry"/>
                </mxCell>
                <mxCell id="66" value="&lt;b&gt;Tipo&lt;br&gt;&lt;/b&gt;&lt;hr&gt;- Debito&lt;br&gt;- Credito" style="html=1;fillColor=#a20025;fontColor=#ffffff;strokeColor=#000000;strokeWidth=2;rounded=1;arcSize=15;" parent="1" vertex="1">
                    <mxGeometry x="190" y="675" width="110" height="85" as="geometry"/>
                </mxCell>
                <mxCell id="67" value="1" style="endArrow=open;html=1;endSize=12;startArrow=diamondThin;startSize=14;startFill=1;edgeStyle=orthogonalEdgeStyle;align=left;verticalAlign=bottom;exitX=1;exitY=0.5;exitDx=0;exitDy=0;" parent="1" source="3" edge="1">
                    <mxGeometry x="-0.9123" y="-2" relative="1" as="geometry">
                        <mxPoint x="290" y="440" as="sourcePoint"/>
                        <mxPoint x="600" y="272" as="targetPoint"/>
                        <Array as="points">
                            <mxPoint x="400" y="438"/>
                            <mxPoint x="400" y="310"/>
                            <mxPoint x="600" y="310"/>
                        </Array>
                        <mxPoint as="offset"/>
                    </mxGeometry>
                </mxCell>
                <mxCell id="69" value="1" style="endArrow=open;html=1;endSize=12;startArrow=diamondThin;startSize=14;startFill=1;edgeStyle=orthogonalEdgeStyle;align=left;verticalAlign=bottom;entryX=1;entryY=0.5;entryDx=0;entryDy=0;" parent="1" target="20" edge="1">
                    <mxGeometry x="-1" y="3" relative="1" as="geometry">
                        <mxPoint x="740" y="170" as="sourcePoint"/>
                        <mxPoint x="660" y="380" as="targetPoint"/>
                        <Array as="points">
                            <mxPoint x="810" y="170"/>
                            <mxPoint x="810" y="378"/>
                        </Array>
                    </mxGeometry>
                </mxCell>
                <mxCell id="73" value="0..n" style="edgeLabel;resizable=0;html=1;align=right;verticalAlign=top;" parent="1" connectable="0" vertex="1">
                    <mxGeometry x="70" y="410" as="geometry"/>
                </mxCell>
            </root>
        </mxGraphModel>
    </diagram>
</mxfile>